<?xml version="1.0" encoding="UTF-8"?>
<!-- Generator: visioncortex VTracer 0.6.3 -->
<svg version="1.1" xmlns="http://www.w3.org/2000/svg" width="1280" height="639">
<path d="M0 0 C1.84 -0 3.68 -0.01 5.52 -0.01 C10.5 -0.02 15.47 -0.01 20.45 0.01 C25.66 0.03 30.88 0.03 36.1 0.03 C44.86 0.03 53.61 0.05 62.37 0.07 C72.49 0.11 82.6 0.12 92.71 0.11 C103.5 0.11 114.29 0.13 125.07 0.15 C128.17 0.15 131.28 0.15 134.38 0.15 C139.25 0.15 144.13 0.17 149.01 0.19 C150.8 0.19 152.58 0.19 154.37 0.19 C156.81 0.19 159.26 0.2 161.7 0.22 C162.4 0.22 163.1 0.21 163.83 0.21 C173.64 0.3 182.52 3.42 189.63 10.33 C196.05 17.71 196.05 17.71 195.73 23.49 C196.39 23.82 197.05 24.15 197.73 24.49 C197.76 42.97 197.77 61.45 197.79 79.93 C197.79 88.51 197.8 97.09 197.81 105.67 C197.82 113.14 197.83 120.62 197.83 128.09 C197.83 132.06 197.83 136.02 197.84 139.98 C197.85 143.7 197.85 147.43 197.85 151.15 C197.85 152.52 197.85 153.89 197.85 155.26 C197.86 157.12 197.86 158.99 197.85 160.85 C197.86 162.42 197.86 162.42 197.86 164.02 C197.73 166.49 197.73 166.49 196.73 168.49 C196.38 169.81 196.05 171.15 195.73 172.49 C195.07 172.49 194.41 172.49 193.73 172.49 C193.36 173.85 193.36 173.85 192.98 175.24 C191.69 178.61 190.51 180.23 187.73 182.49 C187.07 182.49 186.41 182.49 185.73 182.49 C185.07 183.15 184.41 183.81 183.73 184.49 C180.73 186.49 180.73 186.49 177.73 186.49 C177.4 187.15 177.07 187.81 176.73 188.49 C174.83 188.5 174.83 188.5 172.88 188.52 C160.92 188.61 148.96 188.72 136.99 188.83 C130.84 188.88 124.69 188.93 118.54 188.98 C112.61 189.03 106.67 189.08 100.74 189.14 C98.47 189.16 96.21 189.18 93.94 189.19 C90.77 189.22 87.61 189.25 84.44 189.28 C83.02 189.29 83.02 189.29 81.58 189.3 C80.29 189.31 80.29 189.31 78.97 189.33 C78.22 189.33 77.47 189.34 76.7 189.35 C74.52 189.42 74.52 189.42 71.73 190.49 C71.77 191.69 71.8 192.9 71.84 194.14 C71.87 195.76 71.89 197.37 71.92 198.99 C71.95 199.78 71.97 200.57 72 201.38 C72.1 209.54 69.81 215.96 64.73 222.49 C62.81 224.31 60.84 225.86 58.73 227.49 C58.09 228.06 57.46 228.64 56.8 229.24 C53.89 231 51.08 231.16 47.73 231.49 C47.73 231.82 47.73 232.15 47.73 232.49 C-11.67 232.49 -71.07 232.49 -132.27 232.49 C-132.27 231.83 -132.27 231.17 -132.27 230.49 C-133.26 230.82 -134.25 231.15 -135.27 231.49 C-144.37 228.02 -150.92 222.32 -155.33 213.7 C-158.05 207.46 -157.82 201.34 -157.77 194.63 C-157.77 193.25 -157.78 191.87 -157.78 190.49 C-157.8 186.77 -157.79 183.05 -157.77 179.33 C-157.76 175.43 -157.76 171.52 -157.77 167.61 C-157.77 161.06 -157.76 154.5 -157.73 147.95 C-157.71 140.38 -157.7 132.82 -157.72 125.25 C-157.73 117.95 -157.72 110.65 -157.71 103.36 C-157.7 100.26 -157.7 97.16 -157.71 94.06 C-157.71 90.41 -157.7 86.76 -157.68 83.12 C-157.67 81.15 -157.68 79.18 -157.68 77.2 C-157.57 63.79 -157.57 63.79 -152.27 58.49 C-152.08 57.53 -152.08 57.53 -151.89 56.55 C-151.04 53.73 -149.73 53.06 -147.27 51.49 C-146.54 51.01 -145.82 50.54 -145.08 50.05 C-137.92 46.07 -132.22 43.89 -123.98 44.03 C-123.1 44.03 -122.22 44.03 -121.32 44.03 C-118.45 44.03 -115.57 44.06 -112.7 44.1 C-110.69 44.1 -108.69 44.11 -106.68 44.11 C-101.43 44.13 -96.18 44.17 -90.93 44.21 C-85.56 44.25 -80.19 44.27 -74.82 44.29 C-64.3 44.33 -53.78 44.4 -43.27 44.49 C-43.29 42.94 -43.29 42.94 -43.32 41.37 C-43.33 40.01 -43.34 38.64 -43.36 37.28 C-43.37 36.6 -43.38 35.93 -43.39 35.23 C-43.43 29.87 -42.53 26.28 -40.27 21.49 C-39.91 20.16 -39.57 18.83 -39.27 17.49 C-38.61 17.49 -37.95 17.49 -37.27 17.49 C-37.12 16.37 -37.12 16.37 -36.98 15.24 C-36.16 12.06 -35.12 10.75 -32.83 8.42 C-32.21 7.77 -31.59 7.12 -30.96 6.45 C-21.46 -0.48 -11.25 -0.08 0 0 Z M-42.27 29.49 C-42.27 34.44 -42.27 39.39 -42.27 44.49 C-41.94 44.49 -41.61 44.49 -41.27 44.49 C-41.27 39.54 -41.27 34.59 -41.27 29.49 C-41.6 29.49 -41.93 29.49 -42.27 29.49 Z M195.73 33.49 C196.73 35.49 196.73 35.49 196.73 35.49 Z M195.73 41.49 C196.73 43.49 196.73 43.49 196.73 43.49 Z M195.73 81.49 C196.73 83.49 196.73 83.49 196.73 83.49 Z M195.73 128.49 C196.73 130.49 196.73 130.49 196.73 130.49 Z M193.73 168.49 C194.73 170.49 194.73 170.49 194.73 170.49 Z M74.73 186.49 C74.73 186.82 74.73 187.15 74.73 187.49 C78.69 187.49 82.65 187.49 86.73 187.49 C86.73 187.16 86.73 186.83 86.73 186.49 C82.77 186.49 78.81 186.49 74.73 186.49 Z M161.73 186.49 C161.73 186.82 161.73 187.15 161.73 187.49 C163.38 187.49 165.03 187.49 166.73 187.49 C166.73 187.16 166.73 186.83 166.73 186.49 C165.08 186.49 163.43 186.49 161.73 186.49 Z M167.73 186.49 C167.73 186.82 167.73 187.15 167.73 187.49 C169.71 187.49 171.69 187.49 173.73 187.49 C173.73 187.16 173.73 186.83 173.73 186.49 C171.75 186.49 169.77 186.49 167.73 186.49 Z M68.73 208.49 C69.73 210.49 69.73 210.49 69.73 210.49 Z M53.73 226.49 C54.73 228.49 54.73 228.49 54.73 228.49 Z M49.73 228.49 C53.73 229.49 53.73 229.49 53.73 229.49 Z M-110.27 230.49 C-106.27 231.49 -106.27 231.49 -106.27 231.49 Z M-85.27 230.49 C-81.27 231.49 -81.27 231.49 -81.27 231.49 Z M-47.27 230.49 C-43.27 231.49 -43.27 231.49 -43.27 231.49 Z M-37.27 230.49 C-33.27 231.49 -33.27 231.49 -33.27 231.49 Z M11.73 230.49 C15.73 231.49 15.73 231.49 15.73 231.49 Z M33.73 230.49 C37.73 231.49 37.73 231.49 37.73 231.49 Z " fill="#F41305" transform="translate(1018.26611328125,181.51416015625)"/>
<path d="M0 0 C0.99 0 1.98 0 3 0 C3.03 2.6 3.05 5.21 3.06 7.81 C3.07 8.55 3.08 9.29 3.09 10.05 C3.1 13.3 3.04 15.89 2 19 C2.33 19.33 2.66 19.66 3 20 C3.12 23 3.12 23 3 26 C2.5 26.5 2.5 26.5 2 27 C1.9 28.39 1.86 29.79 1.85 31.19 C1.85 32.1 1.84 33 1.83 33.93 C1.83 34.93 1.83 35.93 1.82 36.96 C1.82 38.01 1.81 39.06 1.8 40.14 C1.78 43.62 1.77 47.1 1.76 50.58 C1.76 51.77 1.75 52.95 1.75 54.17 C1.73 60.45 1.71 66.72 1.7 73 C1.69 79.49 1.66 85.99 1.62 92.48 C1.59 97.46 1.59 102.44 1.58 107.42 C1.58 109.82 1.57 112.21 1.55 114.61 C1.52 117.95 1.52 121.3 1.53 124.65 C1.52 125.64 1.5 126.64 1.49 127.66 C1.44 133 1.44 133 3.97 137.53 C4.97 138.26 4.97 138.26 6 139 C6.95 140.89 6.95 140.89 7.69 142.81 C10.98 149.78 18.08 154.1 25 157 C27.98 157.43 30.93 157.44 33.94 157.43 C34.82 157.44 35.7 157.45 36.61 157.46 C39.49 157.49 42.38 157.5 45.27 157.51 C47.28 157.53 49.29 157.55 51.3 157.57 C56.58 157.61 61.86 157.64 67.13 157.67 C72.52 157.7 77.91 157.75 83.3 157.79 C93.87 157.88 104.43 157.94 115 158 C115.09 161.33 115.14 164.67 115.19 168 C115.21 168.93 115.24 169.87 115.26 170.83 C115.35 179.51 113.43 186.02 108 193 C106.08 194.82 104.1 196.38 102 198 C101.36 198.58 100.72 199.15 100.06 199.75 C97.15 201.51 94.34 201.68 91 202 C91 202.33 91 202.66 91 203 C31.6 203 -27.8 203 -89 203 C-89 202.34 -89 201.68 -89 201 C-89.99 201.33 -90.98 201.66 -92 202 C-101.1 198.54 -107.66 192.83 -112.06 184.21 C-114.78 177.98 -114.55 171.85 -114.5 165.15 C-114.51 163.77 -114.51 162.39 -114.52 161.01 C-114.53 157.29 -114.52 153.57 -114.5 149.85 C-114.49 145.94 -114.5 142.03 -114.5 138.13 C-114.5 131.57 -114.49 125.02 -114.47 118.46 C-114.44 110.9 -114.44 103.33 -114.45 95.76 C-114.46 88.47 -114.45 81.17 -114.44 73.87 C-114.43 70.77 -114.43 67.68 -114.44 64.58 C-114.44 60.93 -114.43 57.28 -114.41 53.63 C-114.4 51.66 -114.41 49.69 -114.42 47.72 C-114.31 34.31 -114.31 34.31 -109 29 C-108.88 28.36 -108.75 27.72 -108.62 27.06 C-107.77 24.24 -106.46 23.57 -104 22 C-103.28 21.53 -102.56 21.05 -101.81 20.56 C-94.66 16.59 -88.96 14.4 -80.72 14.55 C-79.84 14.55 -78.96 14.54 -78.05 14.54 C-75.18 14.55 -72.31 14.58 -69.43 14.61 C-67.43 14.62 -65.42 14.62 -63.42 14.63 C-58.17 14.64 -52.91 14.68 -47.66 14.73 C-42.29 14.77 -36.92 14.78 -31.55 14.8 C-21.03 14.85 -10.52 14.92 0 15 C0 10.05 0 5.1 0 0 Z M112 179 C113 181 113 181 113 181 Z M97 197 C98 199 98 199 98 199 Z M93 199 C97 200 97 200 97 200 Z M-67 201 C-63 202 -63 202 -63 202 Z M-42 201 C-38 202 -38 202 -38 202 Z M-4 201 C0 202 0 202 0 202 Z M6 201 C10 202 10 202 10 202 Z M55 201 C59 202 59 202 59 202 Z M77 201 C81 202 81 202 81 202 Z " fill="#0194F9" transform="translate(975,211)"/>
<path d="M0 0 C6.93 0 13.86 0 21 0 C21 0.33 21 0.66 21 1 C22.32 1.06 22.32 1.06 23.68 1.11 C30.59 1.49 36.89 2.23 43.51 4.27 C45.75 4.93 47.88 5.32 50.19 5.69 C57.59 7.23 64.37 11.51 71 15 C71.99 15.5 71.99 15.5 73 16 C73 16.66 73 17.32 73 18 C73.56 18.06 74.11 18.12 74.69 18.19 C78.48 19.52 81.21 22.42 83 26 C83.99 26.33 84.98 26.66 86 27 C87.82 28.74 87.82 28.74 89.69 30.88 C90.62 31.92 90.62 31.92 91.57 32.99 C93 35 93 35 93 38 C93.66 38 94.32 38 95 38 C95.12 38.62 95.25 39.24 95.38 39.88 C95.87 42.19 95.87 42.19 98 44 C98.99 45.97 99.82 47.95 100.62 50 C100.91 50.7 101.19 51.4 101.48 52.12 C102 54 102 54 101 56 C101.99 56.33 102.98 56.66 104 57 C104.06 58.14 104.06 58.14 104.11 59.3 C104.18 60.29 104.24 61.29 104.31 62.31 C104.4 63.79 104.4 63.79 104.49 65.3 C105.07 68.36 105.8 68.95 108 71 C111.93 82.63 111.16 96.12 111.13 108.25 C111.13 110.56 111.13 112.87 111.14 115.18 C111.14 123.16 110.95 131.06 110 139 C109.67 139 109.34 139 109 139 C108.94 139.69 108.88 140.37 108.82 141.08 C108.73 141.98 108.65 142.88 108.56 143.81 C108.44 145.15 108.44 145.15 108.32 146.52 C108 149 108 149 107 152 C106.01 152 105.02 152 104 152 C104.33 154.31 104.66 156.62 105 159 C104.01 159 103.02 159 102 159 C102 159.99 102 160.98 102 162 C102.66 162.33 103.32 162.66 104 163 C103.25 164.73 102.5 166.45 101.75 168.18 C101.1 169.76 100.54 171.38 100 173 C96.49 177.75 96.49 177.75 94 179 C93.65 181 93.32 183 93 185 C91 188 91 188 88.94 188.94 C88.3 189.29 87.66 189.64 87 190 C86.9 190.57 86.79 191.15 86.68 191.74 C85.67 195.08 83.58 196.81 81.12 199.25 C80.24 200.14 79.36 201.03 78.45 201.95 C76 204 76 204 73 204 C72.67 204.66 72.34 205.32 72 206 C69.02 208.14 66.49 209.84 63 211 C63 211.66 63 212.32 63 213 C60.36 213.33 57.72 213.66 55 214 C54.67 214.99 54.34 215.98 54 217 C52 217 50 217 48 217 C47.28 217.52 46.56 218.03 45.81 218.56 C42.37 220.32 40.67 219.94 37 219 C36.67 219.99 36.34 220.98 36 222 C26.75 223.77 17.85 224.29 8.47 224.21 C6.3 224.19 4.14 224.19 1.97 224.19 C-5.4 224.17 -12.68 223.96 -20 223 C-20 222.67 -20 222.34 -20 222 C-22.97 221.67 -25.94 221.34 -29 221 C-29 220.67 -29 220.34 -29 220 C-30.11 219.88 -31.23 219.75 -32.38 219.62 C-36 219 -36 219 -38 217 C-39.99 216.63 -41.99 216.29 -44 216 C-44.66 215.67 -45.32 215.34 -46 215 C-46 214.01 -46 213.02 -46 212 C-47.21 212.03 -47.21 212.03 -48.44 212.06 C-51 212 -51 212 -52 211 C-55.18 208.26 -55.18 208.26 -58.8 206.22 C-74.03 197.78 -83.58 178.05 -88.45 162.1 C-90.2 155.43 -91.23 148.81 -91.75 141.93 C-91.8 140 -91.8 140 -93 139 C-93.09 137.43 -93.12 135.86 -93.11 134.3 C-93.11 133.3 -93.11 132.29 -93.11 131.26 C-93.11 130.17 -93.1 129.09 -93.1 127.96 C-93.1 126.86 -93.09 125.75 -93.09 124.61 C-93.09 121.05 -93.08 117.49 -93.06 113.94 C-93.06 111.53 -93.05 109.13 -93.05 106.72 C-93.04 100.82 -93.02 94.91 -93 89 C-92.34 89 -91.68 89 -91 89 C-91 85.37 -91 81.74 -91 78 C-90.34 78 -89.68 78 -89 78 C-89.06 77.05 -89.12 76.1 -89.19 75.12 C-89.19 68.17 -86.7 61.79 -83 56 C-82.67 54.99 -82.34 53.98 -82 52.94 C-81.01 50.02 -79.88 48.4 -78 46 C-76.97 44.02 -75.96 42.02 -75 40 C-74.34 40 -73.68 40 -73 40 C-73 38.68 -73 37.36 -73 36 C-72.34 36 -71.68 36 -71 36 C-71 35.34 -71 34.68 -71 34 C-69.43 32.45 -69.43 32.45 -67.31 30.69 C-64.85 28.6 -62.53 26.53 -60.25 24.25 C-58.26 22.26 -56.25 20.67 -54 19 C-53.34 18.28 -52.68 17.56 -52 16.81 C-50 15 -50 15 -46 15 C-46 14.34 -46 13.68 -46 13 C-44.68 13 -43.36 13 -42 13 C-42 12.34 -42 11.68 -42 11 C-39.92 10.16 -37.84 9.33 -35.75 8.5 C-34.59 8.04 -33.43 7.57 -32.23 7.09 C-29 6 -29 6 -25 6 C-25 5.34 -25 4.68 -25 4 C-21.7 4 -18.4 4 -15 4 C-15 3.34 -15 2.68 -15 2 C-10.05 2 -5.1 2 0 2 C0 1.34 0 0.68 0 0 Z M1 1 C1 1.33 1 1.66 1 2 C2.98 2 4.96 2 7 2 C7 1.67 7 1.34 7 1 C5.02 1 3.04 1 1 1 Z M0 36 C0 36.33 0 36.66 0 37 C6.6 37 13.2 37 20 37 C20 36.67 20 36.34 20 36 C13.4 36 6.8 36 0 36 Z M-8 38 C-8.33 38.66 -8.66 39.32 -9 40 C-9.99 40 -10.98 40 -12 40 C-12.33 40.66 -12.66 41.32 -13 42 C-13.99 42 -14.98 42 -16 42 C-16 42.99 -16 43.98 -16 45 C-17.65 45.33 -19.3 45.66 -21 46 C-21 46.66 -21 47.32 -21 48 C-23.97 49.24 -26.85 50.3 -30 51 C-30.33 52.32 -30.66 53.64 -31 55 C-32.32 55 -33.64 55 -35 55 C-34.67 55.99 -34.34 56.98 -34 58 C-34 60 -34 60 -35 62 C-35.66 61.67 -36.32 61.34 -37 61 C-37 62.32 -37 63.64 -37 65 C-37.66 64.67 -38.32 64.34 -39 64 C-39 66.64 -39 69.28 -39 72 C-39.66 72 -40.32 72 -41 72 C-41.5 74.48 -41.5 74.48 -42 77 C-42.66 77 -43.32 77 -44 77 C-44 78.98 -44 80.96 -44 83 C-44.66 83 -45.32 83 -46 83 C-46 103.46 -46 123.92 -46 145 C-45.34 145.33 -44.68 145.66 -44 146 C-43.67 146.99 -43.34 147.98 -43 149 C-42.76 149.59 -42.53 150.19 -42.28 150.8 C-40.9 154.25 -39.99 157.07 -39.56 160.81 C-39.33 164.09 -39.33 164.09 -36.94 165.75 C-35.98 166.37 -35.98 166.37 -35 167 C-35 167.99 -35 168.98 -35 170 C-34.34 170.66 -33.68 171.32 -33 172 C-32.01 172 -31.02 172 -30 172 C-29.73 172.6 -29.46 173.2 -29.19 173.81 C-27.29 177.31 -25.8 178.73 -22 180 C-21.34 180.66 -20.68 181.32 -20 182 C-15.25 184.33 -11.29 185.36 -6 186 C-5.67 186.33 -5.34 186.66 -5 187 C-1.01 187.28 3 187.23 7 187.25 C8.11 187.27 9.22 187.29 10.37 187.31 C23.11 187.37 34.92 182.92 45 175 C46.38 173.03 47.72 171.03 49 169 C49.99 168.34 50.98 167.68 52 167 C52 165.68 52 164.36 52 163 C52.66 163 53.32 163 54 163 C54 162.01 54 161.02 54 160 C54.66 160 55.32 160 56 160 C58.68 154.64 59.32 150.99 59 145 C59.66 145 60.32 145 61 145 C61 142.69 61 140.38 61 138 C61.66 138 62.32 138 63 138 C65.29 106.78 65.29 106.78 61 76 C60.34 76 59.68 76 59 76 C59.07 74.99 59.14 73.98 59.22 72.93 C58.97 68.4 57.76 65.97 55.5 62.06 C54.53 60.35 54.53 60.35 53.53 58.6 C53.03 57.74 52.52 56.88 52 56 C51.34 56 50.68 56 50 56 C49.01 54.02 49.01 54.02 48 52 C47.34 52 46.68 52 46 52 C46 51.34 46 50.68 46 50 C45.34 50 44.68 50 44 50 C43.01 47.53 43.01 47.53 42 45 C41.01 45.33 40.02 45.66 39 46 C38.01 44.02 38.01 44.02 37 42 C35.35 42 33.7 42 32 42 C32.33 41.34 32.66 40.68 33 40 C31.35 40 29.7 40 28 40 C28 39.34 28 38.68 28 38 C16.12 38 4.24 38 -8 38 Z M-81 51 C-80 53 -80 53 -80 53 Z M102 57 C103 59 103 59 103 59 Z M-41 68 C-40 71 -40 71 -40 71 Z M108 81 C108 84.3 108 87.6 108 91 C108.33 91 108.66 91 109 91 C109 87.7 109 84.4 109 81 C108.67 81 108.34 81 108 81 Z M-92 90 C-91 92 -91 92 -91 92 Z M-48 93 C-48 105.87 -48 118.74 -48 132 C-47.67 132 -47.34 132 -47 132 C-47 119.13 -47 106.26 -47 93 C-47.33 93 -47.66 93 -48 93 Z M109 104 C109 108.29 109 112.58 109 117 C109.33 117 109.66 117 110 117 C110 112.71 110 108.42 110 104 C109.67 104 109.34 104 109 104 Z M-41 157 C-40 161 -40 161 -40 161 Z M91 182 C92 185 92 185 92 185 Z M-36 217 C-32 218 -32 218 -32 218 Z " fill="#0C466D" transform="translate(346,184)"/>
<path d="M0 0 C6.3 -0.08 12.6 -0.13 18.9 -0.16 C21.04 -0.18 23.18 -0.2 25.32 -0.23 C28.4 -0.26 31.49 -0.28 34.57 -0.29 C35.52 -0.31 36.48 -0.32 37.46 -0.34 C43.6 -0.34 48.19 0.29 52.81 4.75 C54.39 7.75 54.52 10.66 55 14 C55.96 15.36 56.96 16.7 58 18 C58.37 19.66 58.71 21.33 59 23 C59.46 23.91 59.46 23.91 59.93 24.83 C61.12 27.24 61.83 29.6 62.56 32.19 C63.28 35.37 63.28 35.37 65 38 C65.22 39.64 65.22 39.64 65.44 41.31 C65.93 44.52 66.41 46.28 68 49 C69.4 51.55 70.2 53.72 71 56.56 C71.84 60.08 71.84 60.08 74 63 C74.33 65.33 74.67 67.67 75 70 C75.99 71.49 75.99 71.49 77 73 C77.67 75.33 78.33 77.67 79 80 C79.99 81.49 79.99 81.49 81 83 C81.38 85.33 81.71 87.66 82 90 C82.73 93.42 83.76 96.73 85 100 C85.66 100.33 86.32 100.66 87 101 C87.85 102.85 87.85 102.85 88.62 105.06 C88.89 105.8 89.15 106.53 89.41 107.29 C89.61 107.85 89.8 108.42 90 109 C89.67 109.33 89.34 109.66 89 110 C89.99 111.49 89.99 111.49 91 113 C91.82 115.64 92.38 118.3 93 121 C93.33 121 93.66 121 94 121 C94 123.31 94 125.62 94 128 C94.66 128 95.32 128 96 128 C101.43 140.21 101.43 140.21 102 147 C102.36 149.28 102.36 149.28 103 151 C103.66 151.33 104.32 151.66 105 152 C105.22 153.61 105.22 153.61 105.44 155.25 C105.75 158.94 105.75 158.94 107.5 161.5 C109.39 164.65 109.6 167.37 110 171 C110.36 173.28 110.36 173.28 111 175 C111.66 175.33 112.32 175.66 113 176 C113.63 177.85 113.63 177.85 114.12 180.06 C114.29 180.8 114.46 181.53 114.63 182.29 C114.75 182.85 114.88 183.42 115 184 C115.33 184 115.66 184 116 184 C116.33 186.97 116.66 189.94 117 193 C117.66 192.67 118.32 192.34 119 192 C119 193.98 119 195.96 119 198 C119.66 198 120.32 198 121 198 C121.03 200.79 121.05 203.58 121.06 206.38 C121.07 207.17 121.08 207.96 121.09 208.78 C121.11 214.77 121.11 214.77 120 217 C114.64 217.02 109.29 217.04 103.93 217.05 C102.11 217.06 100.28 217.07 98.46 217.08 C95.84 217.09 93.22 217.09 90.61 217.1 C89.38 217.11 89.38 217.11 88.13 217.11 C84.83 217.11 82.16 217.05 79 216 C79 215.34 79 214.68 79 214 C78.34 214 77.68 214 77 214 C74.01 207.21 71.82 200.29 69.84 193.15 C68.91 189.87 67.94 186.86 66.54 183.73 C64.46 178.68 63.32 173.29 62 168 C35.6 168 9.2 168 -18 168 C-18.66 170.64 -19.32 173.28 -20 176 C-20.33 176 -20.66 176 -21 176 C-21.15 177.42 -21.15 177.42 -21.31 178.88 C-22 182 -22 182 -25 184 C-24.67 184 -24.34 184 -24 184 C-23.8 187.72 -23.85 188.77 -26 192 C-26.6 194.05 -27.13 196.11 -27.62 198.19 C-27.89 199.27 -28.15 200.36 -28.41 201.48 C-28.7 202.73 -28.7 202.73 -29 204 C-29.33 204 -29.66 204 -30 204 C-30.14 204.78 -30.29 205.57 -30.44 206.38 C-31.22 210.03 -32.93 212.89 -35 216 C-38.51 217.17 -41.71 217.18 -45.37 217.2 C-46.09 217.21 -46.81 217.21 -47.55 217.22 C-49.07 217.23 -50.59 217.24 -52.11 217.24 C-54.43 217.25 -56.74 217.28 -59.06 217.31 C-60.54 217.32 -62.02 217.32 -63.5 217.33 C-64.19 217.34 -64.88 217.35 -65.59 217.37 C-68.64 217.35 -70.72 217.16 -73.41 215.67 C-75.72 213.24 -75.98 211.16 -76.31 207.88 C-75.98 203.72 -74.88 201.24 -73.09 197.55 C-71.1 192.89 -70.1 187.94 -69 183 C-68.34 183 -67.68 183 -67 183 C-67 181.68 -67 180.36 -67 179 C-66.34 179 -65.68 179 -65 179 C-65.06 178.36 -65.12 177.72 -65.19 177.06 C-64.97 173.5 -63.99 170.64 -62.8 167.29 C-61.73 164.23 -60.87 161.13 -60 158 C-59.34 158 -58.68 158 -58 158 C-58 156.02 -58 154.04 -58 152 C-57.34 152 -56.68 152 -56 152 C-56 150.02 -56 148.04 -56 146 C-55.34 146 -54.68 146 -54 146 C-53.9 144.99 -53.79 143.98 -53.69 142.94 C-52.98 138.89 -51.66 135.74 -50 132 C-49.31 129.22 -49.31 129.22 -49 127 C-48.67 127 -48.34 127 -48 127 C-47.67 125.02 -47.34 123.04 -47 121 C-46.34 121 -45.68 121 -45 121 C-44.88 120 -44.76 119 -44.63 117.96 C-44.07 114.05 -43.06 110.35 -41.94 106.56 C-41.58 105.33 -41.21 104.09 -40.84 102.82 C-40.56 101.89 -40.29 100.96 -40 100 C-39.67 100 -39.34 100 -39 100 C-38.67 98.02 -38.34 96.04 -38 94 C-37.34 94 -36.68 94 -36 94 C-36 92.35 -36 90.7 -36 89 C-35.34 89 -34.68 89 -34 89 C-33.9 87.82 -33.79 86.65 -33.69 85.44 C-33.16 81.22 -31.74 77.88 -30 74 C-29.23 71.57 -28.53 69.13 -27.82 66.69 C-26.95 63.83 -25.93 61.05 -24.88 58.25 C-23.48 54.5 -22.43 51 -22 47 C-21.34 47 -20.68 47 -20 47 C-20 45.68 -20 44.36 -20 43 C-19.34 43 -18.68 43 -18 43 C-18 41.35 -18 39.7 -18 38 C-17.34 38 -16.68 38 -16 38 C-15.92 36.95 -15.84 35.9 -15.75 34.81 C-14.74 26.63 -11.61 18.78 -9 11 C-8.34 11 -7.68 11 -7 11 C-7 9.68 -7 8.36 -7 7 C-6.34 7 -5.68 7 -5 7 C-5 6.01 -5 5.02 -5 4 C-4.34 4 -3.68 4 -3 4 C-3 3.34 -3 2.68 -3 2 C-2.01 2 -1.02 2 0 2 C0 1.34 0 0.68 0 0 Z M52 7 C53 10 53 10 53 10 Z M20 44 C20 45.65 20 47.3 20 49 C19.34 48.01 18.68 47.02 18 46 C17.67 48.31 17.34 50.62 17 53 C16.67 53 16.34 53 16 53 C15.96 53.62 15.93 54.23 15.89 54.87 C15.32 62.18 14.11 68.83 10 75 C9.67 75 9.34 75 9 75 C9 76.65 9 78.3 9 80 C8.34 80 7.68 80 7 80 C7.33 80.99 7.66 81.98 8 83 C7 84 6 85 5 86 C4.61 88.23 4.61 88.23 4.5 90.75 C4.18 94.78 3.49 98.21 2 102 C1.34 101.67 0.68 101.34 0 101 C-0.33 102.98 -0.66 104.96 -1 107 C-1.33 107 -1.66 107 -2 107 C-2 108.65 -2 110.3 -2 112 C-2.66 112 -3.32 112 -4 112 C-4 115.96 -4 119.92 -4 124 C-4.66 124 -5.32 124 -6 124 C-6.8 127.29 -7.1 128.71 -6 132 C12.81 132 31.62 132 51 132 C47.92 121.95 47.92 121.95 44.75 111.92 C44.37 110.74 43.99 109.56 43.6 108.34 C43.21 107.16 42.83 105.97 42.44 104.75 C42.05 103.55 41.67 102.35 41.27 101.11 C39.44 95.43 37.6 89.75 35.7 84.09 C34.96 81.87 34.23 79.65 33.5 77.43 C33.25 76.68 33 75.93 32.75 75.15 C32.25 73.63 31.75 72.1 31.25 70.57 C30.09 67.07 28.88 63.63 27.39 60.25 C26.2 57.48 25.4 55.01 24.81 52.06 C24.65 51.29 24.5 50.52 24.33 49.72 C24.22 49.15 24.11 48.59 24 48 C23.34 48 22.68 48 22 48 C21.34 46.68 20.68 45.36 20 44 Z M-21 48 C-20 50 -20 50 -20 50 Z M14 59 C15 61 15 61 15 61 Z M12 64 C12.33 64.66 12.66 65.32 13 66 C13.33 65.34 13.66 64.68 14 64 C13.34 64 12.68 64 12 64 Z M3 91 C3.33 91.66 3.66 92.32 4 93 C4.33 92.34 4.66 91.68 5 91 C4.34 91 3.68 91 3 91 Z M85 103 C86 105 86 105 86 105 Z M90 115 C91 119 91 119 91 119 Z M-6 118 C-5 121 -5 121 -5 121 Z M-19 166 C-19 166.33 -19 166.66 -19 167 C7.4 167 33.8 167 61 167 C61 166.67 61 166.34 61 166 C34.6 166 8.2 166 -19 166 Z M112 178 C113 180 113 180 113 180 Z M-29 194 C-28 197 -28 197 -28 197 Z M-71 215 C-71 215.33 -71 215.66 -71 216 C-66.38 216 -61.76 216 -57 216 C-57 215.67 -57 215.34 -57 215 C-61.62 215 -66.24 215 -71 215 Z " fill="#0D476D" transform="translate(693,188)"/>
<path d="M0 0 C4.13 -0.1 8.25 -0.17 12.38 -0.22 C13.78 -0.24 15.18 -0.27 16.58 -0.3 C31.36 -0.66 31.36 -0.66 38 4 C38.5 5.49 38.5 5.49 39 7 C38.67 7.66 38.34 8.32 38 9 C37.9 11.14 37.87 13.29 37.87 15.44 C37.87 16.1 37.87 16.76 37.87 17.44 C37.86 19.63 37.86 21.81 37.87 24 C37.87 25.52 37.87 27.03 37.86 28.55 C37.86 31.73 37.86 34.91 37.87 38.09 C37.88 42.18 37.87 46.26 37.87 50.34 C37.86 53.47 37.86 56.61 37.87 59.74 C37.87 61.25 37.87 62.75 37.86 64.26 C37.86 66.36 37.87 68.46 37.87 70.56 C37.87 71.76 37.87 72.96 37.87 74.19 C37.81 76.95 37.81 76.95 39 79 C38.74 80.99 38.48 82.97 38.19 84.96 C37.96 87.46 38.32 89.59 39 92 C39.62 91.5 40.24 91.01 40.88 90.5 C43 89 43 89 45 89 C45 87.68 45 86.36 45 85 C45.66 85 46.32 85 47 85 C47 84.34 47 83.68 47 83 C47.66 83 48.32 83 49 83 C49.33 81.35 49.66 79.7 50 78 C50.66 78 51.32 78 52 78 C52.1 77.36 52.21 76.72 52.31 76.06 C52.54 75.38 52.77 74.7 53 74 C53.99 73.67 54.98 73.34 56 73 C56.14 72.42 56.29 71.85 56.44 71.25 C57.21 68.18 59 66.43 61 64 C61.71 62.69 62.39 61.36 63 60 C63.66 60 64.32 60 65 60 C65.33 58.35 65.66 56.7 66 55 C66.99 54.67 67.98 54.34 69 54 C69.33 52.35 69.66 50.7 70 49 C70.66 49 71.32 49 72 49 C72.08 48.42 72.17 47.84 72.25 47.25 C73 45 73 45 74.75 43.31 C77.5 40.48 79 37.44 80.75 33.93 C82 32 82 32 85 31 C85.33 29.35 85.66 27.7 86 26 C86.99 25.67 87.98 25.34 89 25 C89.33 23.35 89.66 21.7 90 20 C90.66 20 91.32 20 92 20 C92.08 19.24 92.17 18.47 92.25 17.69 C93 15 93 15 94.9 13.61 C97.88 11.32 98.85 8.53 100.36 5.16 C102.76 1.99 105.23 0.85 109 0 C113.29 -0.39 117.55 -0.47 121.85 -0.45 C123.86 -0.44 125.87 -0.47 127.89 -0.5 C135.47 -0.49 141.42 0.06 148 4 C148.25 9.62 148.25 9.62 146 13 C146.99 13.5 146.99 13.5 148 14 C147.34 14 146.68 14 146 14 C145.86 14.78 145.71 15.57 145.56 16.38 C145 19 145 19 144 21 C143.18 21.45 142.35 21.91 141.5 22.38 C138.85 23.73 138.85 23.73 138.31 26.06 C138.16 27.02 138.16 27.02 138 28 C137.34 28.66 136.68 29.32 136 30 C135.67 30.66 135.34 31.32 135 32 C134 34 134 34 132 36 C131.34 35.67 130.68 35.34 130 35 C128.14 38.58 126.58 42.28 125 46 C124.67 46.66 124.34 47.32 124 48 C121.94 48.62 121.94 48.62 120 49 C119.92 49.72 119.83 50.44 119.75 51.19 C118.84 54.61 117.42 56.44 115 59 C113.51 59.5 113.51 59.5 112 60 C112 60.99 112 61.98 112 63 C111.34 63 110.68 63 110 63 C109.67 63.99 109.34 64.98 109 66 C108.34 66.66 107.68 67.32 107 68 C106.6 68.9 106.6 68.9 106.19 69.81 C104.61 72.72 102.34 74.66 100 77 C98.7 79.17 98.7 79.17 98 81 C97.34 81 96.68 81 96 81 C95.67 82.65 95.34 84.3 95 86 C94.34 86 93.68 86 93 86 C93 86.66 93 87.32 93 88 C92.01 88.5 92.01 88.5 91 89 C89.98 90.99 88.98 92.99 88 95 C87.34 95.66 86.68 96.32 86 97 C85.01 97 84.02 97 83 97 C83.44 101.87 84.48 103.71 88 107 C88 107.99 88 108.98 88 110 C88.66 110.33 89.32 110.66 90 111 C90 111.99 90 112.98 90 114 C91.18 114.68 91.18 114.68 92.38 115.38 C95.49 117.3 95.85 118.63 97 122 C97.66 122.33 98.32 122.66 99 123 C99 124.32 99 125.64 99 127 C100.49 127.99 100.49 127.99 102 129 C106 133.57 106 133.57 106 136 C106.99 136.96 106.99 136.96 108 137.94 C110 140 110 140 110 143 C111.4 144.65 111.4 144.65 113 146 C113.33 146.33 113.66 146.66 114 147 C114.5 147.43 114.99 147.87 115.5 148.31 C117.2 150.22 117.43 151.56 118 154 C118.66 154.33 119.32 154.66 120 155 C119.67 156.32 119.34 157.64 119 159 C119.99 158.67 120.98 158.34 122 158 C122.25 158.74 122.5 159.49 122.75 160.25 C123.84 163.1 123.84 163.1 126.12 165.06 C128 167 128 167 128 171 C128.99 171.33 129.98 171.66 131 172 C131 172.66 131 173.32 131 174 C132.18 175.14 132.18 175.14 133.38 176.31 C135.98 178.97 136.7 180.62 138 184 C138.68 184.66 139.36 185.32 140.06 186 C142.32 188.33 142.65 189.83 143 193 C143.99 193.33 144.98 193.66 146 194 C146.66 197.3 147.32 200.6 148 204 C148.99 204.33 149.98 204.66 151 205 C151.33 206.98 151.66 208.96 152 211 C151.34 211 150.68 211 150 211 C150 211.66 150 212.32 150 213 C149.34 213 148.68 213 148 213 C147.67 213.99 147.34 214.98 147 216 C146.34 215.83 145.68 215.67 145 215.49 C141.32 214.89 137.78 214.98 134.07 215.12 C133.33 215.14 132.58 215.17 131.81 215.19 C129.43 215.27 127.06 215.35 124.69 215.44 C123.07 215.49 121.46 215.54 119.84 215.6 C115.89 215.72 111.95 215.86 108 216 C107.67 215.01 107.34 214.02 107 213 C106.01 213 105.02 213 104 213 C103.67 211.68 103.34 210.36 103 209 C102.34 209 101.68 209 101 209 C101 208.01 101 207.02 101 206 C100.34 205.67 99.68 205.34 99 205 C97.74 203.22 96.54 201.4 95.38 199.56 C94.74 198.57 94.11 197.59 93.46 196.57 C92 194 92 194 92 192 C91.34 192 90.68 192 90 192 C90 191.01 90 190.02 90 189 C89.34 189 88.68 189 88 189 C87.5 186.52 87.5 186.52 87 184 C86.34 184 85.68 184 85 184 C83.63 182.06 83.63 182.06 82.12 179.44 C81.63 178.59 81.14 177.74 80.63 176.87 C79.46 174.8 78.29 172.73 77.13 170.65 C74.47 165.98 71.4 161.59 68.36 157.17 C65 152.21 65 152.21 65 150 C64.34 150 63.68 150 63 150 C62.59 149.11 62.18 148.23 61.75 147.31 C60.16 144.05 60.16 144.05 58.12 141.69 C54.91 137.62 51.68 132.89 50.48 127.79 C50.32 127.2 50.16 126.61 50 126 C49.01 125.5 49.01 125.5 48 125 C46.4 122.67 44.87 120.33 43.38 117.94 C42.74 116.94 42.74 116.94 42.1 115.93 C41.06 114.29 40.03 112.64 39 111 C38.39 115.48 37.87 119.79 37.94 124.31 C37.95 125.13 37.96 125.95 37.96 126.8 C37.98 127.53 37.99 128.25 38 129 C38 157 38 185 38 213 C35.01 215.99 31.65 215.42 27.63 215.52 C26.8 215.55 25.97 215.57 25.11 215.6 C23.35 215.65 21.59 215.7 19.83 215.74 C17.14 215.81 14.45 215.91 11.76 216.01 C10.05 216.05 8.34 216.1 6.63 216.14 C5.83 216.18 5.02 216.21 4.2 216.24 C1.14 216.29 -1.4 216.27 -4.21 215 C-6.96 211.93 -6.57 208.68 -6.54 204.76 C-6.55 203.91 -6.56 203.06 -6.57 202.19 C-6.6 199.33 -6.59 196.47 -6.59 193.61 C-6.61 191.57 -6.62 189.52 -6.64 187.48 C-6.68 181.92 -6.7 176.36 -6.71 170.79 C-6.72 164.98 -6.75 159.17 -6.79 153.36 C-6.84 143.59 -6.87 133.83 -6.89 124.07 C-6.92 112.77 -6.97 101.48 -7.04 90.18 C-7.1 79.33 -7.15 68.48 -7.19 57.62 C-7.2 53 -7.23 48.37 -7.25 43.75 C-7.29 38.3 -7.3 32.86 -7.31 27.42 C-7.31 25.41 -7.32 23.41 -7.33 21.41 C-7.35 18.69 -7.35 15.96 -7.35 13.24 C-7.36 12.44 -7.37 11.64 -7.38 10.82 C-7.34 5.54 -7.34 5.54 -5.73 2.99 C-4 2 -4 2 0 2 C0 1.34 0 0.68 0 0 Z M137 22 C138 24 138 24 138 24 Z M66 56 C67 58 67 58 67 58 Z M95 78 C95.66 78.66 96.32 79.32 97 80 C97.33 79.34 97.66 78.68 98 78 C97.01 78 96.02 78 95 78 Z M88 90 C89 92 89 92 89 92 Z M86 92 C87 94 87 94 87 94 Z M97 124 C98 126 98 126 98 126 Z " fill="#0D446A" transform="translate(83,188)"/>
<path d="M0 0 C4.14 -0.1 8.29 -0.17 12.43 -0.22 C13.84 -0.24 15.25 -0.27 16.65 -0.3 C18.69 -0.35 20.72 -0.37 22.75 -0.39 C23.97 -0.41 25.19 -0.43 26.45 -0.45 C30.6 0.08 33.86 1.24 37 4 C37.88 7.21 37.88 7.21 37.88 11.09 C37.89 11.8 37.9 12.51 37.91 13.25 C37.94 15.64 37.91 18.03 37.89 20.43 C37.89 22.14 37.91 23.86 37.92 25.57 C37.95 30.23 37.93 34.88 37.91 39.54 C37.9 44.41 37.92 49.27 37.94 54.14 C37.97 63.35 37.97 72.57 37.95 81.78 C37.93 92.28 37.95 102.77 37.98 113.26 C38.03 134.84 38.03 156.42 38 178 C38.84 178 39.68 178.01 40.55 178.01 C48.48 178.05 56.41 178.11 64.34 178.18 C68.42 178.22 72.49 178.26 76.57 178.27 C80.51 178.29 84.44 178.32 88.38 178.37 C89.88 178.38 91.38 178.39 92.88 178.39 C94.98 178.39 97.09 178.42 99.19 178.45 C100.39 178.46 101.58 178.47 102.82 178.48 C106.65 179.11 108.32 180.22 111 183 C111.68 186.2 111.94 188.76 112 192 C112.03 193.22 112.05 194.45 112.08 195.71 C112.21 207.86 112.21 207.86 111 213 C108.94 214.38 108.94 214.38 107 215 C107 215.66 107 216.32 107 217 C93.49 217.05 79.98 217.08 66.48 217.1 C60.2 217.11 53.93 217.13 47.66 217.15 C41.61 217.17 35.56 217.18 29.51 217.19 C27.2 217.19 24.89 217.2 22.58 217.21 C19.35 217.23 16.12 217.23 12.89 217.23 C11.44 217.24 11.44 217.24 9.97 217.25 C8.65 217.24 8.65 217.24 7.31 217.24 C6.54 217.24 5.78 217.24 4.99 217.25 C3 217 3 217 0 215 C-0.68 214.67 -1.36 214.34 -2.06 214 C-4.58 212.7 -5.79 211.39 -7.11 208.89 C-8.25 205.18 -8.28 201.67 -8.26 197.83 C-8.26 197.01 -8.27 196.2 -8.27 195.35 C-8.28 192.61 -8.28 189.88 -8.27 187.14 C-8.28 185.17 -8.28 183.21 -8.29 181.24 C-8.3 175.91 -8.3 170.57 -8.3 165.24 C-8.3 160.79 -8.31 156.34 -8.31 151.89 C-8.32 141.39 -8.32 130.89 -8.32 120.39 C-8.31 109.56 -8.32 98.72 -8.34 87.88 C-8.36 78.58 -8.37 69.28 -8.36 59.98 C-8.36 54.42 -8.36 48.87 -8.38 43.31 C-8.39 38.09 -8.39 32.86 -8.38 27.64 C-8.37 25.72 -8.38 23.8 -8.38 21.88 C-8.39 19.27 -8.39 16.66 -8.37 14.04 C-8.38 13.28 -8.39 12.51 -8.4 11.73 C-8.36 8.55 -8.18 6.32 -6.64 3.51 C-5 2 -5 2 -2.31 1.75 C-1.55 1.83 -0.79 1.91 0 2 C0 1.34 0 0.68 0 0 Z M35 5 C36 9 36 9 36 9 Z M35 14 C36 16 36 16 36 16 Z M35 40 C36 42 36 42 36 42 Z M35 75 C36 77 36 77 36 77 Z M35 124 C36 126 36 126 36 126 Z M35 154 C36 156 36 156 36 156 Z M35 165 C36 167 36 167 36 167 Z M35 170 C36 173 36 173 36 173 Z M35 175 C36 178 36 178 36 178 Z M110 189 C111 191 111 191 111 191 Z M110 204 C111 206 111 206 111 206 Z M13 215 C17 216 17 216 17 216 Z " fill="#10486E" transform="translate(500,188)"/>
<path d="M0 0 C0.66 0 1.32 0 2 0 C2 0.73 2 1.45 2 2.2 C1.98 19.86 1.96 37.52 1.95 55.18 C1.94 63.72 1.94 72.26 1.92 80.8 C1.91 88.25 1.91 95.69 1.91 103.14 C1.9 107.08 1.9 111.02 1.89 114.96 C1.89 118.67 1.89 122.39 1.89 126.1 C1.89 128.11 1.88 130.11 1.88 132.12 C1.88 137.85 1.95 143.36 3 149 C-0.05 144.42 -1.25 141.74 -1.25 136.17 C-1.25 134.98 -1.26 133.79 -1.26 132.57 C-1.25 131.26 -1.25 129.96 -1.24 128.62 C-1.24 127.23 -1.25 125.84 -1.25 124.45 C-1.25 120.69 -1.25 116.92 -1.24 113.16 C-1.23 109.22 -1.23 105.28 -1.23 101.34 C-1.23 94.73 -1.22 88.12 -1.21 81.51 C-1.19 73.86 -1.18 66.21 -1.19 58.56 C-1.19 51.2 -1.18 43.85 -1.17 36.5 C-1.17 33.36 -1.17 30.23 -1.17 27.1 C-1.17 23.41 -1.16 19.73 -1.15 16.04 C-1.15 14.04 -1.15 12.03 -1.15 10.03 C-1.14 8.85 -1.14 7.66 -1.13 6.45 C-1.13 5.41 -1.13 4.38 -1.13 3.31 C-1 1 -1 1 0 0 Z " fill="#73C3F7" transform="translate(862,248)"/>
<path d="M0 0 C0.33 0 0.66 0 1 0 C1 66 1 132 1 200 C0.67 200 0.34 200 0 200 C0 134 0 68 0 0 Z " fill="#DCEBEF" transform="translate(75,196)"/>
<path d="M0 0 C3.3 0.66 6.6 1.32 10 2 C10 2.33 10 2.66 10 3 C-49.4 3 -108.8 3 -170 3 C-170 2.34 -170 1.68 -170 1 C-85.85 1.5 -85.85 1.5 0 2 C0 1.34 0 0.68 0 0 Z " fill="#E0EFF3" transform="translate(1056,411)"/>
<path d="M0 0 C12.15 -0.02 24.3 -0.04 36.46 -0.05 C42.1 -0.06 47.74 -0.06 53.39 -0.08 C58.83 -0.09 64.28 -0.09 69.73 -0.09 C71.8 -0.1 73.88 -0.1 75.96 -0.11 C78.87 -0.11 81.78 -0.11 84.69 -0.11 C85.55 -0.12 86.4 -0.12 87.29 -0.12 C91.64 -0.12 95.71 0.13 100 1 C100 1.33 100 1.66 100 2 C98.77 2.01 97.53 2.02 96.26 2.03 C84.65 2.13 73.04 2.23 61.43 2.34 C55.46 2.39 49.49 2.45 43.52 2.5 C37.77 2.54 32.01 2.6 26.25 2.65 C24.05 2.67 21.85 2.69 19.65 2.71 C16.58 2.73 13.5 2.76 10.43 2.79 C9.51 2.8 8.6 2.81 7.66 2.81 C6.4 2.83 6.4 2.83 5.12 2.84 C4.39 2.85 3.66 2.85 2.92 2.86 C0.78 2.94 0.78 2.94 -2 4 C-1.34 2.68 -0.68 1.36 0 0 Z " fill="#E0EFF3" transform="translate(1092,368)"/>
<path d="M0 0 C0.33 0 0.66 0 1 0 C1 25.41 1 50.82 1 77 C0.67 77 0.34 77 0 77 C0 51.59 0 26.18 0 0 Z " fill="#E0EFF3" transform="translate(121,320)"/>
<path d="M0 0 C6.93 0 13.86 0 21 0 C21.66 1.32 22.32 2.64 23 4 C15.41 4 7.82 4 0 4 C0 2.68 0 1.36 0 0 Z M1 1 C1 1.33 1 1.66 1 2 C2.98 2 4.96 2 7 2 C7 1.67 7 1.34 7 1 C5.02 1 3.04 1 1 1 Z " fill="#192D3B" transform="translate(346,184)"/>
<path d="M0 0 C0.33 0 0.66 0 1 0 C1 22.44 1 44.88 1 68 C0.67 68 0.34 68 0 68 C0 45.56 0 23.12 0 0 Z " fill="#E0EFF3" transform="translate(121,197)"/>
<path d="M0 0 C0.66 0.66 1.32 1.32 2 2 C1.57 2.42 1.13 2.85 0.69 3.28 C-1.3 5.22 -3.27 7.17 -5.25 9.12 C-6.27 10.12 -6.27 10.12 -7.32 11.14 C-11.08 14.87 -14.26 18.46 -17 23 C-17.66 22.67 -18.32 22.34 -19 22 C-18.5 20.51 -18.5 20.51 -18 19 C-17.34 19 -16.68 19 -16 19 C-16 17.68 -16 16.36 -16 15 C-15.34 15 -14.68 15 -14 15 C-14 14.34 -14 13.68 -14 13 C-12.43 11.45 -12.43 11.45 -10.31 9.69 C-7.05 6.91 -3.98 4.07 -1 1 C-0.67 0.67 -0.34 0.34 0 0 Z " fill="#7D96A9" transform="translate(289,205)"/>
<path d="M0 0 C3 1 3 1 4.07 3.04 C4.42 3.89 4.77 4.75 5.12 5.62 C7.89 11.5 11.71 14.43 17 18 C18.34 18.99 19.67 19.99 21 21 C15.01 20.63 10.56 16.56 6.48 12.48 C3.47 9.03 0 4.75 0 0 Z " fill="#06436C" transform="translate(977,347)"/>
<path d="M0 0 C0.99 1.32 1.98 2.64 3 4 C2.3 4.41 1.6 4.82 0.88 5.25 C-2.14 7.09 -5.07 9.03 -8 11 C-8 8 -8 8 -6.25 5.96 C-5.51 5.25 -4.76 4.54 -4 3.81 C-2.89 2.74 -2.89 2.74 -1.75 1.64 C-1.17 1.1 -0.6 0.56 0 0 Z " fill="#D3504B" transform="translate(990,186)"/>
<path d="M0 0 C11.22 0 22.44 0 34 0 C34 0.33 34 0.66 34 1 C22.78 1 11.56 1 0 1 C0 0.67 0 0.34 0 0 Z " fill="#B1BDC9" transform="translate(194,404)"/>
<path d="M0 0 C0.99 0 1.98 0 3 0 C3 0.66 3 1.32 3 2 C2.34 2 1.68 2 1 2 C1 2.99 1 3.98 1 5 C0.34 5 -0.32 5 -1 5 C-1.43 6.14 -1.43 6.14 -1.88 7.31 C-3 10 -3 10 -5 13 C-5.66 12.67 -6.32 12.34 -7 12 C-5.87 8.62 -4.22 6.76 -2 4 C-1.29 2.69 -0.61 1.36 0 0 Z " fill="#587A92" transform="translate(146,248)"/>
<path d="M0 0 C10.23 0 20.46 0 31 0 C31 0.33 31 0.66 31 1 C20.77 1 10.54 1 0 1 C0 0.67 0 0.34 0 0 Z " fill="#B0BCC8" transform="translate(84,404)"/>
<path d="M0 0 C0.66 0.66 1.32 1.32 2 2 C1.88 3.94 1.88 3.94 1 6 C-1.06 7.75 -1.06 7.75 -3 9 C-3.66 8.34 -4.32 7.68 -5 7 C-4.55 6.4 -4.09 5.8 -3.62 5.19 C-2.37 3.49 -1.17 1.76 0 0 Z " fill="#657A8A" transform="translate(394,353)"/>
<path d="M0 0 C1.65 0 3.3 0 5 0 C5 0.33 5 0.66 5 1 C3.35 1 1.7 1 0 1 C0 0.67 0 0.34 0 0 Z " fill="#E0EFF3" transform="translate(352,408)"/>
<path d="M0 0 C1.65 0 3.3 0 5 0 C5 0.33 5 0.66 5 1 C3.35 1 1.7 1 0 1 C0 0.67 0 0.34 0 0 Z " fill="#E0EFF3" transform="translate(342,408)"/>
<path d="M0 0 C0.33 0 0.66 0 1 0 C1 1.65 1 3.3 1 5 C0.67 5 0.34 5 0 5 C0 3.35 0 1.7 0 0 Z " fill="#BDC9D3" transform="translate(451,247)"/>
<path d="M0 0 C0 0.99 0 1.98 0 3 C-0.66 2.67 -1.32 2.34 -2 2 C-1.34 1.34 -0.68 0.68 0 0 Z " fill="#BDC9D3" transform="translate(224,210)"/>
<path d="M0 0 C4 1 4 1 4 1 Z " fill="#E0EFF3" transform="translate(384,404)"/>
<path d="M0 0 C1 4 1 4 1 4 Z " fill="#CAD7DF" transform="translate(451,337)"/>
<path d="M0 0 C1 4 1 4 1 4 Z " fill="#000002" transform="translate(121,271)"/>
<path d="M0 0 C0 3 0 3 0 3 Z " fill="#E0EFF3" transform="translate(211,227)"/>
<path d="M0 0 C0.33 0.66 0.66 1.32 1 2 C0.34 1.67 -0.32 1.34 -1 1 C-0.67 0.67 -0.34 0.34 0 0 Z " fill="#A6B1BF" transform="translate(608,402)"/>
<path d="" fill="#C3D0D9" transform="translate(0,0)"/>
<path d="M0 0 C0.33 0.66 0.66 1.32 1 2 C0.34 1.67 -0.32 1.34 -1 1 C-0.67 0.67 -0.34 0.34 0 0 Z " fill="#E0EFF3" transform="translate(434,373)"/>
<path d="" fill="#E0EFF3" transform="translate(0,0)"/>
<path d="M0 0 C0.33 0.66 0.66 1.32 1 2 C0.34 1.67 -0.32 1.34 -1 1 C-0.67 0.67 -0.34 0.34 0 0 Z " fill="#C3D0D9" transform="translate(204,236)"/>
<path d="M0 0 C2 1 2 1 2 1 Z " fill="#E0EFF3" transform="translate(362,408)"/>
<path d="" fill="#8992A5" transform="translate(0,0)"/>
<path d="" fill="#E0EFF3" transform="translate(0,0)"/>
<path d="" fill="#B4C0CC" transform="translate(0,0)"/>
<path d="" fill="#7399AF" transform="translate(0,0)"/>
<path d="" fill="#E0EFF3" transform="translate(0,0)"/>
<path d="" fill="#7399AF" transform="translate(0,0)"/>
<path d="" fill="#E0EFF3" transform="translate(0,0)"/>
<path d="" fill="#000002" transform="translate(0,0)"/>
<path d="" fill="#E0EFF3" transform="translate(0,0)"/>
<path d="" fill="#E0EFF3" transform="translate(0,0)"/>
<path d="" fill="#E0EFF3" transform="translate(0,0)"/>
<path d="" fill="#E0EFF3" transform="translate(0,0)"/>
<path d="" fill="#8992A5" transform="translate(0,0)"/>
<path d="" fill="#8992A5" transform="translate(0,0)"/>
<path d="" fill="#20293A" transform="translate(0,0)"/>
<path d="" fill="#E0EFF3" transform="translate(0,0)"/>
<path d="" fill="#E0EFF3" transform="translate(0,0)"/>
<path d="" fill="#E0EFF3" transform="translate(0,0)"/>
<path d="" fill="#8992A5" transform="translate(0,0)"/>
<path d="" fill="#E0EFF3" transform="translate(0,0)"/>
<path d="" fill="#E0EFF3" transform="translate(0,0)"/>
<path d="" fill="#E0EFF3" transform="translate(0,0)"/>
<path d="" fill="#000002" transform="translate(0,0)"/>
<path d="" fill="#E0EFF3" transform="translate(0,0)"/>
<path d="" fill="#06436C" transform="translate(0,0)"/>
<path d="" fill="#06436C" transform="translate(0,0)"/>
<path d="" fill="#E0EFF3" transform="translate(0,0)"/>
<path d="" fill="#06436C" transform="translate(0,0)"/>
<path d="" fill="#E0EFF3" transform="translate(0,0)"/>
<path d="" fill="#E0EFF3" transform="translate(0,0)"/>
<path d="" fill="#E0EFF3" transform="translate(0,0)"/>
<path d="" fill="#06436C" transform="translate(0,0)"/>
<path d="" fill="#06436C" transform="translate(0,0)"/>
<path d="" fill="#06436C" transform="translate(0,0)"/>
<path d="" fill="#000002" transform="translate(0,0)"/>
<path d="" fill="#000002" transform="translate(0,0)"/>
<path d="" fill="#000002" transform="translate(0,0)"/>
<path d="" fill="#E0EFF3" transform="translate(0,0)"/>
<path d="" fill="#E0EFF3" transform="translate(0,0)"/>
<path d="" fill="#E0EFF3" transform="translate(0,0)"/>
<path d="" fill="#E0EFF3" transform="translate(0,0)"/>
<path d="" fill="#E0EFF3" transform="translate(0,0)"/>
<path d="" fill="#000002" transform="translate(0,0)"/>
<path d="" fill="#000002" transform="translate(0,0)"/>
<path d="" fill="#000002" transform="translate(0,0)"/>
<path d="" fill="#000002" transform="translate(0,0)"/>
<path d="" fill="#E0EFF3" transform="translate(0,0)"/>
<path d="" fill="#000002" transform="translate(0,0)"/>
<path d="" fill="#E0EFF3" transform="translate(0,0)"/>
<path d="" fill="#06436C" transform="translate(0,0)"/>
<path d="" fill="#000002" transform="translate(0,0)"/>
<path d="" fill="#E0EFF3" transform="translate(0,0)"/>
<path d="" fill="#E0EFF3" transform="translate(0,0)"/>
<path d="" fill="#000002" transform="translate(0,0)"/>
<path d="" fill="#E0EFF3" transform="translate(0,0)"/>
<path d="" fill="#000002" transform="translate(0,0)"/>
<path d="" fill="#000002" transform="translate(0,0)"/>
<path d="" fill="#E0EFF3" transform="translate(0,0)"/>
<path d="" fill="#E0EFF3" transform="translate(0,0)"/>
<path d="" fill="#E0EFF3" transform="translate(0,0)"/>
<path d="" fill="#E0EFF3" transform="translate(0,0)"/>
<path d="" fill="#E0EFF3" transform="translate(0,0)"/>
<path d="" fill="#E0EFF3" transform="translate(0,0)"/>
<path d="" fill="#E0EFF3" transform="translate(0,0)"/>
<path d="" fill="#E0EFF3" transform="translate(0,0)"/>
<path d="" fill="#E0EFF3" transform="translate(0,0)"/>
<path d="" fill="#E0EFF3" transform="translate(0,0)"/>
<path d="" fill="#E0EFF3" transform="translate(0,0)"/>
<path d="" fill="#E0EFF3" transform="translate(0,0)"/>
<path d="" fill="#F71103" transform="translate(0,0)"/>
<path d="" fill="#000002" transform="translate(0,0)"/>
<path d="" fill="#E0EFF3" transform="translate(0,0)"/>
<path d="" fill="#E0EFF3" transform="translate(0,0)"/>
</svg>
