<svg xmlns="http://www.w3.org/2000/svg">
<g>
    <path
      d="M13.7866 12.7077C14.5246 12.686 15.1324 13.2504 15.1975 13.9667H12.2671C12.3756 13.2287 13.0268 12.6643 13.7866 12.7077ZM15.1107 15.2691C14.8285 15.6816 14.3509 15.9203 13.8517 15.8769C13.0268 15.8769 12.4191 15.4211 12.2671 14.6396H15.9355C15.9572 14.5311 15.9572 14.4226 15.9572 14.2923C15.9572 13.055 15.089 11.9697 13.7649 11.9697C12.5276 11.9263 11.5074 12.9031 11.464 14.1187C11.464 14.1621 11.464 14.2272 11.464 14.2706C11.464 15.5947 12.3973 16.5715 13.8083 16.5715C14.5897 16.5932 15.306 16.2242 15.7402 15.573L15.1107 15.2691Z"
      fill="#006BFF"
    />
    <path
      d="M11.1384 10.1029H10.3787V16.5064H11.1384V10.1029Z"
      fill="#006BFF"
    />
    <path
      d="M20.2118 13.793V16.4847H19.4521V13.8364C19.4521 13.1201 19.0396 12.7077 18.3667 12.7077C17.6938 12.7077 17.086 13.1201 17.086 14.162V16.4847H16.3263V12.0999H17.086V12.7294C17.3899 12.2301 17.9326 11.948 18.5187 11.9914C19.5389 11.9914 20.2118 12.686 20.2118 13.793Z"
      fill="#006BFF"
    />
    <path
      d="M24.4228 14.2923C24.4228 13.424 23.7065 12.7511 22.86 12.7511C21.9917 12.7511 21.3188 13.4674 21.3188 14.314C21.3188 15.1606 22.0134 15.8552 22.8817 15.8552C23.7282 15.8769 24.4228 15.204 24.4445 14.3574C24.4228 14.3357 24.4228 14.314 24.4228 14.2923ZM25.1826 10.1029V16.5064H24.4228V15.7466C24.0538 16.311 23.4243 16.6366 22.7731 16.6149C21.4924 16.5715 20.4939 15.5079 20.5373 14.2272C20.5808 13.0116 21.5576 12.0348 22.7731 11.9914C23.446 11.9697 24.0755 12.2953 24.4228 12.8597V10.1029H25.1826Z"
      fill="#006BFF"
    />
    <path
      d="M26.5718 10.1029H25.8121V16.5064H26.5718V10.1029Z"
      fill="#006BFF"
    />
    <path
      d="M9.01113 14.2923C9.01113 13.4241 8.29481 12.7512 7.44825 12.7512C6.57998 12.7512 5.90707 13.4675 5.90707 14.3141C5.90707 15.1606 6.60169 15.8552 7.44825 15.8552C8.29481 15.8769 8.98942 15.204 9.01113 14.3575C9.01113 14.3358 9.01113 14.3141 9.01113 14.2923ZM9.77086 12.1V16.4847H9.01113V15.7467C8.64212 16.3111 8.01262 16.6367 7.36142 16.615C6.08073 16.5716 5.08222 15.5079 5.12563 14.2272C5.16904 13.0117 6.14585 12.0349 7.36142 11.9914C8.03433 11.9697 8.66382 12.2953 9.01113 12.8597V12.1H9.77086Z"
      fill="#006BFF"
    />
    <path
      d="M4.01858 15.6599C2.7813 16.1157 1.41378 15.5079 0.936235 14.2707C0.480395 13.0334 1.08818 11.6659 2.32546 11.1883C3.30226 10.8193 4.40931 11.1232 5.06051 11.9698L5.71171 11.4922C4.62637 10.103 2.62936 9.84249 1.24013 10.9061C-0.149099 11.9915 -0.40958 13.9885 0.654048 15.3777C1.73938 16.7669 3.7364 17.0274 5.12563 15.9638H5.14733L4.7132 15.2692C4.49613 15.4428 4.25736 15.5731 4.01858 15.6599Z"
      fill="#006BFF"
    />
    <path
      d="M30.2403 12.1V14.5962C30.2403 15.3994 29.7844 15.9204 29.0681 15.9204C28.3518 15.9204 27.8308 15.4211 27.8308 14.5962V12.1H27.0494V14.5094C27.0494 15.7684 27.8308 16.5933 29.0464 16.5933C30.0883 16.5933 30.262 15.9204 30.262 15.9204V16.832C30.262 17.722 29.8712 18.2213 29.0681 18.2213C28.482 18.2213 27.9611 17.7871 27.8959 17.201L27.2013 17.4398C27.3967 18.3081 28.1781 18.9159 29.0681 18.9159C30.3054 18.9159 31 18.091 31 16.832V12.1H30.2403Z"
      fill="#006BFF"
    />
    <path
      d="M17.2832 5.97405C16.9359 6.34307 16.4583 6.56013 15.9591 6.56013H15.5467C15.0908 6.56013 14.635 6.38648 14.3094 6.06088C14.0055 5.73528 13.8318 5.32285 13.8535 4.88872V4.34605C13.8535 3.89021 14.0272 3.47778 14.3311 3.15218C14.6567 2.82658 15.0908 2.65293 15.5467 2.65293H15.9374C16.4366 2.65293 16.9359 2.87 17.2832 3.23901C17.6088 3.58632 18.0646 3.75997 18.5422 3.73826C18.6507 3.73826 18.7593 3.73826 18.8678 3.71656C18.8244 3.60802 18.781 3.49949 18.7158 3.41266L18.2383 2.60952C17.8042 1.87149 17.0227 1.41565 16.1545 1.41565H15.2211C14.3528 1.41565 13.5714 1.87149 13.1372 2.60952L12.6597 3.41266C12.2255 4.15069 12.2255 5.08408 12.6597 5.82211L13.1372 6.64696C13.5714 7.38499 14.3528 7.84083 15.2211 7.84083H16.1545C17.0227 7.84083 17.8042 7.38499 18.2383 6.64696L18.7158 5.84381C18.781 5.75699 18.8244 5.64845 18.8678 5.53992C18.7593 5.51821 18.6507 5.51821 18.5422 5.51821C18.0646 5.45309 17.6088 5.62675 17.2832 5.97405Z"
      fill="#006BFF"
    />
    <path
      d="M15.9373 3.15214H15.5249C14.8954 3.13043 14.3528 3.60798 14.3093 4.25918C14.3093 4.28089 14.3093 4.3243 14.3093 4.34601V4.88867C14.2876 5.51817 14.8086 6.06084 15.4381 6.06084C15.4598 6.06084 15.4815 6.06084 15.5249 6.06084H15.9156C16.9793 6.06084 16.8924 4.9755 18.4987 4.9755C18.6507 4.9755 18.8026 4.99721 18.9546 5.01891C18.998 4.73673 18.998 4.45454 18.9546 4.19406C18.8026 4.21577 18.6507 4.23747 18.4987 4.23747C16.9358 4.23747 17.0227 3.15214 15.9373 3.15214Z"
      fill="#006BFF"
    />
    <path
      d="M19.9097 5.40963C19.6275 5.21427 19.3236 5.08403 18.9763 5.01891C18.9546 5.17086 18.9112 5.34451 18.8461 5.49646C19.1283 5.53987 19.3887 5.6484 19.6058 5.80035C18.9329 7.97102 16.632 9.18659 14.4396 8.53539C12.2472 7.88419 11.0534 5.56158 11.7263 3.3692C12.3992 1.17683 14.7001 -0.0170405 16.8925 0.63416C18.1949 1.04659 19.2151 2.0668 19.6275 3.3692C19.4104 3.54286 19.15 3.62968 18.8678 3.6731C18.9329 3.82504 18.9763 3.97699 18.998 4.15064C19.3236 4.10723 19.6492 3.97699 19.9314 3.80334C20.1268 3.6948 20.1919 3.45603 20.1051 3.26067C19.3453 0.82952 16.7622 -0.538001 14.3311 0.200026C11.8999 0.95976 10.5324 3.54286 11.2704 5.97401C12.0085 8.40515 14.6133 9.77268 17.0444 9.03465C18.4988 8.57881 19.6492 7.45006 20.1051 5.97401C20.1702 5.77865 20.1051 5.53987 19.9097 5.40963Z"
      fill="#006BFF"
    />
    <path
      d="M18.8461 3.71646C18.7375 3.73817 18.629 3.73817 18.5205 3.73817C18.0429 3.75987 17.5871 3.58622 17.2615 3.23891C16.9142 2.8699 16.4366 2.67454 15.9374 2.65283H15.5249C15.0691 2.65283 14.635 2.82649 14.3094 3.15209C14.0055 3.47769 13.8318 3.89011 13.8318 4.34595V4.88862C13.8318 5.32276 14.0055 5.75689 14.3094 6.08249C14.635 6.40809 15.0691 6.58174 15.5249 6.56004H15.9157C16.4149 6.56004 16.9142 6.34297 17.2615 5.97396C17.5871 5.62665 18.0429 5.43129 18.5205 5.4747C18.629 5.4747 18.7375 5.4747 18.8461 5.49641C18.9112 5.34446 18.9546 5.19252 18.9763 5.01886C18.8244 4.99715 18.6724 4.97545 18.5205 4.97545C16.9142 4.97545 17.001 6.06078 15.9374 6.06078H15.5249C14.8954 6.08249 14.3528 5.58323 14.3311 4.95374C14.3311 4.93203 14.3311 4.91033 14.3311 4.88862V4.32425C14.3094 3.69475 14.8303 3.15209 15.4598 3.13038C15.4815 3.13038 15.5032 3.13038 15.5249 3.13038H15.9157C16.9793 3.13038 16.8925 4.21571 18.4988 4.21571C18.6507 4.21571 18.8026 4.19401 18.9546 4.1723C18.9546 4.04206 18.9112 3.89011 18.8461 3.71646Z"
      fill="#0AE8F0"
    />
    <path
      d="M18.8461 3.71646C18.7375 3.73817 18.629 3.73817 18.5205 3.73817C18.0429 3.75987 17.5871 3.58622 17.2615 3.23891C16.9142 2.8699 16.4366 2.67454 15.9374 2.65283H15.5249C15.0691 2.65283 14.635 2.82649 14.3094 3.15209C14.0055 3.47769 13.8318 3.89011 13.8318 4.34595V4.88862C13.8318 5.32276 14.0055 5.75689 14.3094 6.08249C14.635 6.40809 15.0691 6.58174 15.5249 6.56004H15.9157C16.4149 6.56004 16.9142 6.34297 17.2615 5.97396C17.5871 5.62665 18.0429 5.43129 18.5205 5.4747C18.629 5.4747 18.7375 5.4747 18.8461 5.49641C18.9112 5.34446 18.9546 5.19252 18.9763 5.01886C18.8244 4.99715 18.6724 4.97545 18.5205 4.97545C16.9142 4.97545 17.001 6.06078 15.9374 6.06078H15.5249C14.8954 6.08249 14.3528 5.58323 14.3311 4.95374C14.3311 4.93203 14.3311 4.91033 14.3311 4.88862V4.32425C14.3094 3.69475 14.8303 3.15209 15.4598 3.13038C15.4815 3.13038 15.5032 3.13038 15.5249 3.13038H15.9157C16.9793 3.13038 16.8925 4.21571 18.4988 4.21571C18.6507 4.21571 18.8026 4.19401 18.9546 4.1723C18.9546 4.04206 18.9112 3.89011 18.8461 3.71646Z"
      fill="#0AE8F0"
    />
</g>
</svg>
