<svg xmlns="http://www.w3.org/2000/svg">
<g>
  <path
    d="M10.3333 4C5.74083 4 2 7.74083 2 12.3333C2 16.9258 5.74083 20.6667 10.3333 20.6667C14.9258 20.6667 18.6667 16.9258 18.6667 12.3333C18.6667 7.74083 14.9258 4 10.3333 4ZM10.3333 5.66667C14.0251 5.66667 17 8.64156 17 12.3333C17 16.0251 14.0251 19 10.3333 19C6.64156 19 3.66667 16.0251 3.66667 12.3333C3.66667 8.64156 6.64156 5.66667 10.3333 5.66667ZM10.3333 7.33333C8.49167 7.33333 7 8.825 7 10.6667H8.66667C8.66667 9.75 9.41667 9 10.3333 9C11.25 9 12 9.75 12 10.6667C12 12.3333 9.5 12.6392 9.5 14.8333H11.1667C11.1667 13.4575 13.6667 12.75 13.6667 10.6667C13.6667 8.825 12.175 7.33333 10.3333 7.33333ZM9.5 15.6667V17.3333H11.1667V15.6667H9.5Z"
  />
</g>
</svg>
