<svg xmlns="http://www.w3.org/2000/svg">
<g>
    <path
      d="M15.807 10.6667L20.8686 14.7626C18.8668 16.796 17.4084 18.7423 16.4933 20.6014C15.6354 22.4024 15.2064 24.3487 15.2064 26.4402L12.2895 23.2158L22.0697 23.2158L22.0697 37.3334L8 37.3334L8 28.3574C8 25.0458 8.57194 22.0248 9.71582 19.2942C10.9169 16.5055 12.9473 13.6297 15.807 10.6667ZM33.7373 10.6667L38.7989 14.7626C36.7971 16.796 35.3387 18.7423 34.4236 20.6014C33.5657 22.4024 33.1367 24.3487 33.1367 26.4402L30.2198 23.2158L40 23.2158L40 37.3334L25.9303 37.3334L25.9303 28.3574C25.9303 25.0458 26.5022 22.0248 27.6461 19.2942C28.8472 16.5055 30.8776 13.6297 33.7373 10.6667Z"
      fill="#673DE6"
    />
</g>
</svg>
